<?xml version="1.0" encoding="UTF-8"?>
<svg width="512" height="512" viewBox="0 0 512 512" fill="none" xmlns="http://www.w3.org/2000/svg">
  <g fill="white">
    <!-- Arrow bars -->
    <rect x="40" y="180" width="30" height="120" rx="15"/>
    <rect x="100" y="150" width="30" height="180" rx="15"/>
    <rect x="160" y="120" width="30" height="240" rx="15"/>
    <rect x="220" y="60" width="30" height="360" rx="15"/>
    <rect x="280" y="120" width="30" height="240" rx="15"/>
    <rect x="340" y="150" width="30" height="180" rx="15"/>
    <rect x="400" y="180" width="30" height="120" rx="15"/>
    <!-- DK Letters -->
    <path d="M100 380 L180 380 Q240 380 240 440 L240 500 L100 500 L100 380Z"/>
    <path d="M280 380 L340 380 L400 440 L400 500 L340 500 L280 440 L280 380Z"/>
  </g>
</svg> 